<svg xmlns="http://www.w3.org/2000/svg" width="220.03" height="174.52" viewBox="0 0 220.03 174.52">
  <g id="logo" transform="translate(-33 -30.462)">
    <path id="Path_8408" data-name="Path 8408" d="M4.459,30.2,1.843,39.994,0,46.849h16.79l1.834-6.855L21.249,30.2Z" transform="translate(33 60.671)" fill="#f89900"/>
    <path id="Path_8409" data-name="Path 8409" d="M42.709,12.37,35.979,34.611H12.423L19.154,12.37Z" transform="translate(45.427 42.835)" fill="#f89900"/>
    <path id="Path_8410" data-name="Path 8410" d="M154.9,46.984a49.653,49.653,0,0,0-8.615-25.111A49.979,49.979,0,0,0,104.894,0H60.938L55.075,21.873,48.344,46.984H71.9L78.63,21.873h24.447A29.111,29.111,0,0,1,132.218,51a46.83,46.83,0,0,1-.95,9.405,46.356,46.356,0,0,1-3.18,9.793,48.316,48.316,0,0,1-3.835,6.855,47.392,47.392,0,0,1-5.721,6.907,46.434,46.434,0,0,1-18.508,11.3h-.008a46.25,46.25,0,0,1-14.31,2.254H58.356L61.99,83.965l1.85-6.907L65.675,70.2,68.3,60.41H22.637L20.01,70.2l-1.832,6.855-1.852,6.907H38.435L34.8,97.519l-5.863,21.873H86.319A70.349,70.349,0,0,0,93.654,119a68.828,68.828,0,0,0,52.773-35.039A69,69,0,0,0,152.19,70.2a67.49,67.49,0,0,0,2.128-9.793,69.383,69.383,0,0,0,.68-9.691V50.1c0-1.042-.032-2.086-.1-3.112" transform="translate(49.33 30.462)" fill="#fff"/>
    <path id="Path_8411" data-name="Path 8411" d="M79.522,23.489l-3.6,13.426L73.3,46.708H49.75l2.616-9.793,3.6-13.426Z" transform="translate(82.763 53.957)" fill="#f89900"/>
    <g id="Group_5156" data-name="Group 5156" transform="translate(171.931 145.725)">
      <path id="Path_8412" data-name="Path 8412" d="M69.456,64.533V57.648H72.1a3.86,3.86,0,0,1,1.5.272,3.016,3.016,0,0,1,1.744,1.826,3.917,3.917,0,0,1,.224,1.334,3.854,3.854,0,0,1-.248,1.42,3.049,3.049,0,0,1-.7,1.086,3.127,3.127,0,0,1-1.1.7,3.9,3.9,0,0,1-1.426.248Zm4.2-3.452a2.4,2.4,0,0,0-.106-.728,1.671,1.671,0,0,0-.306-.562,1.4,1.4,0,0,0-.49-.364,1.585,1.585,0,0,0-.65-.13h-.756v3.588H72.1a1.551,1.551,0,0,0,.66-.136,1.363,1.363,0,0,0,.49-.378,1.678,1.678,0,0,0,.3-.572,2.424,2.424,0,0,0,.1-.718" transform="translate(-69.456 -57.6)" fill="#f89900"/>
      <rect id="Rectangle_4" data-name="Rectangle 4" width="1.89" height="6.885" transform="translate(7.913 0.047)" fill="#f89900"/>
      <path id="Path_8413" data-name="Path 8413" d="M80.292,63.985a2.555,2.555,0,0,1-1.7.62,3.5,3.5,0,0,1-1.28-.236,3.082,3.082,0,0,1-1.068-.694,3.349,3.349,0,0,1-.726-1.116,3.891,3.891,0,0,1-.272-1.5,3.366,3.366,0,0,1,1.018-2.438,3.508,3.508,0,0,1,1.12-.728,3.6,3.6,0,0,1,1.392-.266,3.822,3.822,0,0,1,.892.1,3.2,3.2,0,0,1,.79.3,3.109,3.109,0,0,1,.654.474,2.482,2.482,0,0,1,.476.626L80.186,60.2a1.59,1.59,0,0,0-.612-.654,1.643,1.643,0,0,0-.862-.248,1.424,1.424,0,0,0-.622.136,1.506,1.506,0,0,0-.484.378,1.815,1.815,0,0,0-.32.578,2.381,2.381,0,0,0,0,1.468,1.7,1.7,0,0,0,.326.568,1.419,1.419,0,0,0,.5.368,1.554,1.554,0,0,0,.65.132,1.934,1.934,0,0,0,1.454-.68H79.022V60.89h2.832v3.666H80.292Z" transform="translate(-63.661 -57.624)" fill="#f89900"/>
      <rect id="Rectangle_5" data-name="Rectangle 5" width="1.89" height="6.885" transform="translate(20.093 0.047)" fill="#f89900"/>
      <path id="Path_8414" data-name="Path 8414" d="M87.132,59.3H85.154v5.237h-1.89V59.3H81.275V57.648h5.857Z" transform="translate(-57.633 -57.6)" fill="#f89900"/>
      <path id="Path_8415" data-name="Path 8415" d="M86.806,57.648h1.726l2.386,6.885H89l-.418-1.348H86.748l-.408,1.348H84.412Zm1.474,4.277-.61-2.134-.64,2.134Z" transform="translate(-54.496 -57.6)" fill="#f89900"/>
      <path id="Path_8416" data-name="Path 8416" d="M88.436,64.533V57.648h1.89v5.237h3.122v1.648Z" transform="translate(-50.471 -57.6)" fill="#f89900"/>
      <path id="Path_8417" data-name="Path 8417" d="M93.192,64.533V57.648h2.646a3.859,3.859,0,0,1,1.5.272,3.016,3.016,0,0,1,1.744,1.826,3.918,3.918,0,0,1,.224,1.334,3.855,3.855,0,0,1-.248,1.42,3.048,3.048,0,0,1-.7,1.086,3.127,3.127,0,0,1-1.1.7,3.9,3.9,0,0,1-1.426.248Zm4.2-3.452a2.4,2.4,0,0,0-.106-.728,1.671,1.671,0,0,0-.306-.562,1.4,1.4,0,0,0-.49-.364,1.585,1.585,0,0,0-.65-.13h-.756v3.588h.756a1.551,1.551,0,0,0,.66-.136,1.363,1.363,0,0,0,.49-.378,1.678,1.678,0,0,0,.3-.572,2.424,2.424,0,0,0,.1-.718" transform="translate(-45.714 -57.6)" fill="#f89900"/>
      <rect id="Rectangle_6" data-name="Rectangle 6" width="1.89" height="6.885" transform="translate(55.391 0.047)" fill="#f89900"/>
      <path id="Path_8418" data-name="Path 8418" d="M101.06,61.148v3.384H99.17V57.648h1.474l2.762,3.5v-3.5H105.3v6.885h-1.5Z" transform="translate(-39.734 -57.6)" fill="#f89900"/>
      <path id="Path_8419" data-name="Path 8419" d="M105.4,57.648h1.726l2.386,6.885h-1.92l-.418-1.348h-1.832l-.408,1.348h-1.928Zm1.474,4.277-.61-2.134-.64,2.134Z" transform="translate(-35.898 -57.6)" fill="#f89900"/>
      <path id="Path_8420" data-name="Path 8420" d="M107.028,64.533V57.648h3.16a2.115,2.115,0,0,1,.932.208,2.372,2.372,0,0,1,.73.544,2.506,2.506,0,0,1,.48.766,2.226,2.226,0,0,1,.178.868,2.438,2.438,0,0,1-.264,1.12,2.3,2.3,0,0,1-.728.848l1.454,2.53h-2.13l-1.214-2.114h-.706v2.114Zm1.892-3.762h1.19a.413.413,0,0,0,.326-.194.857.857,0,0,0,.152-.542.781.781,0,0,0-.176-.548.493.493,0,0,0-.348-.19H108.92Z" transform="translate(-31.874 -57.6)" fill="#f89900"/>
    </g>
    <g id="Group_5155" data-name="Group 5155" transform="translate(33 166.35)">
      <rect id="Rectangle_11" data-name="Rectangle 11" width="3.218" height="3.218" transform="translate(81.719 0.413)" fill="#fff"/>
      <rect id="Rectangle_12" data-name="Rectangle 12" width="3.218" height="3.218" transform="translate(88.158 0.413)" fill="#fff"/>
      <g id="Group_5154" data-name="Group 5154" transform="translate(0 0)">
        <path id="Path_8421" data-name="Path 8421" d="M9.619,74.373h-3.2a3.2,3.2,0,0,0-2.316.894,2.8,2.8,0,0,0-.922,2.07V90.666a2.629,2.629,0,0,0,.942,2.062,3.044,3.044,0,0,0,1.05.686,3.356,3.356,0,0,0,1.246.236h12.82a3.118,3.118,0,0,0,2.3-.922,2.615,2.615,0,0,0,.922-2.062V77.338A5.71,5.71,0,0,1,23,74.914a6.451,6.451,0,0,1,1.422-2,6.369,6.369,0,0,1,2.052-1.3,6.567,6.567,0,0,1,2.424-.46h0a6.28,6.28,0,0,1,2.454.53,6.867,6.867,0,0,1,2.118,1.354A5.766,5.766,0,0,1,34.8,74.962a3.581,3.581,0,0,1,.254.57c.04.132.092.364.158.7a5.908,5.908,0,0,1,.1,1.11V90.706a2.749,2.749,0,0,0,.9,2.06,3.178,3.178,0,0,0,1.07.668,3.455,3.455,0,0,0,1.228.236h0v3.2h0a6.973,6.973,0,0,1-2.474-.45A6.746,6.746,0,0,1,34,95.082a6.456,6.456,0,0,1-1.422-2.012,5.8,5.8,0,0,1-.48-2.364V77.338a2.758,2.758,0,0,0-.9-2.062,3.207,3.207,0,0,0-1.05-.666,3.349,3.349,0,0,0-1.246-.236h0a3.143,3.143,0,0,0-2.316.9,2.87,2.87,0,0,0-.922,2.062V90.666a5.864,5.864,0,0,1-.53,2.444A6.106,6.106,0,0,1,23.7,95.1a6.524,6.524,0,0,1-2.012,1.276,5.91,5.91,0,0,1-1.186.354,7.542,7.542,0,0,1-1.266.1H6.419a6.653,6.653,0,0,1-2.492-.472,7.548,7.548,0,0,1-2.06-1.334A6.211,6.211,0,0,1,.482,93.032,5.9,5.9,0,0,1,0,90.666V77.338a4.611,4.611,0,0,1,.04-.608c.026-.2.058-.406.1-.628a7.967,7.967,0,0,1,.354-1.158A6.544,6.544,0,0,1,1.934,72.9a6.315,6.315,0,0,1,2.042-1.3,6.63,6.63,0,0,1,2.442-.45h3.2Z" transform="translate(0 -64.714)" fill="#fff"/>
        <path id="Path_8422" data-name="Path 8422" d="M45.951,95a6.017,6.017,0,0,1-2.012,1.286,6.46,6.46,0,0,1-2.444.5H28.7a6.356,6.356,0,0,1-2.454-.472A6.755,6.755,0,0,1,24.2,95l-.276-.294-.334.314a5.949,5.949,0,0,1-2.02,1.3,6.565,6.565,0,0,1-2.474.482h0v-3.2h0a3.124,3.124,0,0,0,2.306-.892,2.822,2.822,0,0,0,.894-2.052V77.356a5.9,5.9,0,0,1,.49-2.384,5.817,5.817,0,0,1,1.374-1.952,6.835,6.835,0,0,1,2.11-1.326,6.377,6.377,0,0,1,2.424-.5h12.8a6.6,6.6,0,0,1,2.444.452,7.747,7.747,0,0,1,2.012,1.138,9.247,9.247,0,0,1,1.394,2.14,5.681,5.681,0,0,1,.53,2.432v13.27a2.791,2.791,0,0,0,.922,2.12,3.228,3.228,0,0,0,2.3.864h0v3.2h0c-.236,0-.458-.006-.666-.02A6.3,6.3,0,0,1,46.6,95.024l-.354-.314ZM26.38,75.3a2.705,2.705,0,0,0-.884,2.06v13.27a2.762,2.762,0,0,0,.924,2.1,3.411,3.411,0,0,0,1.04.648,3.846,3.846,0,0,0,1.236.2h12.8a3.19,3.19,0,0,0,1.256-.224,3.857,3.857,0,0,0,1.022-.658,2.653,2.653,0,0,0,.922-2.062V77.356a2.794,2.794,0,0,0-.942-2.05,3.131,3.131,0,0,0-2.258-.912H28.7a3.455,3.455,0,0,0-1.226.224,3.386,3.386,0,0,0-1.09.678" transform="translate(19.102 -64.676)" fill="#fff"/>
        <path id="Path_8423" data-name="Path 8423" d="M34.729,93.631l22.555.018a3.083,3.083,0,0,0,2.276-.882,2.868,2.868,0,0,0,.924-2.08V87.742a5.557,5.557,0,0,1-1.532.646,6.808,6.808,0,0,1-1.668.2H44.446a6.42,6.42,0,0,1-2.482-.482,6.3,6.3,0,0,1-2.032-1.324,6.581,6.581,0,0,1-1.384-1.974,5.643,5.643,0,0,1-.52-2.4V77.377a5.837,5.837,0,0,1,.5-2.414A6.187,6.187,0,0,1,39.912,73a6.663,6.663,0,0,1,2.052-1.336,6.354,6.354,0,0,1,2.482-.49H57.284a6.276,6.276,0,0,1,2.444.49A6.678,6.678,0,0,1,61.779,73a6.443,6.443,0,0,1,1.4,1.962,5.637,5.637,0,0,1,.52,2.414v13.31a5.657,5.657,0,0,1-.52,2.4A6.6,6.6,0,0,1,61.8,95.063a6.246,6.246,0,0,1-2.032,1.324,6.421,6.421,0,0,1-2.482.482l-22.593-.02Zm7.4-18.354a2.758,2.758,0,0,0-.9,2.1V82.4a2.985,2.985,0,0,0,.224,1.14,2.517,2.517,0,0,0,.678.942,3.4,3.4,0,0,0,2.316.882H57.284a3.083,3.083,0,0,0,2.276-.882,2.876,2.876,0,0,0,.924-2.082V77.377a2.808,2.808,0,0,0-.924-2.1,3.168,3.168,0,0,0-2.276-.884H44.446a3.22,3.22,0,0,0-2.316.884" transform="translate(34.7 -64.695)" fill="#fff"/>
        <path id="Path_8424" data-name="Path 8424" d="M58.549,77.553V90.745a2.6,2.6,0,0,0,.928,2.02,3.125,3.125,0,0,0,1.076.668,3.451,3.451,0,0,0,1.234.236h0v3.2a6.544,6.544,0,0,1-3.238-.826V97.1a5.7,5.7,0,0,1-.53,2.424,6.529,6.529,0,0,1-1.394,1.982,6.092,6.092,0,0,1-2.05,1.3,6.685,6.685,0,0,1-2.444.462h0v-3.2h0a2.964,2.964,0,0,0,.628-.078,4.457,4.457,0,0,0,.608-.176,3.445,3.445,0,0,0,1.08-.668,2.85,2.85,0,0,0,.648-.942,2.3,2.3,0,0,0,.274-1.1V77.553l-.02-6.4h3.2Z" transform="translate(52.144 -64.715)" fill="#fff"/>
        <path id="Path_8425" data-name="Path 8425" d="M63.337,67.935V93.924a5.748,5.748,0,0,1-.53,2.4,6.493,6.493,0,0,1-1.432,2.032A6.567,6.567,0,0,1,59.332,99.7a6.411,6.411,0,0,1-2.472.472V96.909h0a3.306,3.306,0,0,0,1.284-.266A3.065,3.065,0,0,0,59.156,96a2.711,2.711,0,0,0,.922-2.08V67.935Z" transform="translate(56.875 -67.935)" fill="#fff"/>
        <rect id="Rectangle_7" data-name="Rectangle 7" width="3.2" height="32.094" transform="translate(126.867 0.059)" fill="#fff"/>
        <path id="Path_8426" data-name="Path 8426" d="M79.442,71.174V97.125a5.7,5.7,0,0,1-.53,2.422,6.563,6.563,0,0,1-1.394,1.984,6.118,6.118,0,0,1-2.05,1.294,6.686,6.686,0,0,1-2.444.462h0v-3.2h0a3.417,3.417,0,0,0,1.256-.254,2.983,2.983,0,0,0,1.04-.648,2.733,2.733,0,0,0,.922-2.06V71.174Z" transform="translate(73.043 -64.695)" fill="#fff"/>
        <path id="Path_8427" data-name="Path 8427" d="M82.914,67.945V93.914a3.733,3.733,0,0,0,.04.58,2.33,2.33,0,0,0,.176.56,3.207,3.207,0,0,0,.686.922,3.243,3.243,0,0,0,2.3.9h0v3.2a6.593,6.593,0,0,1-2.434-.472A6.528,6.528,0,0,1,81.6,98.313a5.986,5.986,0,0,1-1.392-1.984,5.918,5.918,0,0,1-.51-2.414V67.945Z" transform="translate(79.717 -67.925)" fill="#fff"/>
        <path id="Path_8428" data-name="Path 8428" d="M89.167,71.154V90.7a2.774,2.774,0,0,0,.922,2.062,3.008,3.008,0,0,0,1.022.676,3.394,3.394,0,0,0,1.274.226h0v3.2h0a6.327,6.327,0,0,1-2.482-.492,6.577,6.577,0,0,1-2.012-1.294l-.314-.314-.314.314a6.156,6.156,0,0,1-2.05,1.314,6.632,6.632,0,0,1-2.464.472v-3.2h0a3.162,3.162,0,0,0,2.286-.9,2.8,2.8,0,0,0,.932-2.062V71.154Z" transform="translate(82.77 -64.715)" fill="#fff"/>
        <path id="Path_8429" data-name="Path 8429" d="M90.736,71.174h3.218V90.725a5.83,5.83,0,0,1-.52,2.4,6.059,6.059,0,0,1-1.4,1.994,6.611,6.611,0,0,1-2.052,1.294,6.523,6.523,0,0,1-2.462.472h0v-3.2h0a3.265,3.265,0,0,0,2.316-.9,2.681,2.681,0,0,0,.686-.962,2.891,2.891,0,0,0,.216-1.1Z" transform="translate(87.541 -64.695)" fill="#fff"/>
        <path id="Path_8430" data-name="Path 8430" d="M97.037,71.144h3.218a6.438,6.438,0,0,1,2.414.472,6.674,6.674,0,0,1,2.1,1.334,6.016,6.016,0,0,1,1.382,1.962,5.814,5.814,0,0,1,.52,2.414v13.33a2.766,2.766,0,0,0,.236,1.108,3.687,3.687,0,0,0,.668,1.012,3.618,3.618,0,0,0,1.02.666,3.436,3.436,0,0,0,1.3.236h0v3.18h0c-.236,0-.458-.006-.668-.02a6.122,6.122,0,0,1-.726-.1,5.658,5.658,0,0,1-1.02-.324,7.555,7.555,0,0,1-1.11-.55,5.42,5.42,0,0,1-.99-.794l-.334-.334-.274.294a6.355,6.355,0,0,1-4.517,1.786H93.837v-3.18h6.419a3.115,3.115,0,0,0,2.3-.922,2.633,2.633,0,0,0,.9-2.06V77.327a2.87,2.87,0,0,0-.226-1.128,2.5,2.5,0,0,0-.676-.932,3.117,3.117,0,0,0-2.3-.9H97.037Z" transform="translate(93.862 -64.725)" fill="#fff"/>
        <path id="Path_8431" data-name="Path 8431" d="M108.313,67.935V93.924a5.748,5.748,0,0,1-.53,2.4,6.493,6.493,0,0,1-1.432,2.032,6.567,6.567,0,0,1-2.042,1.334,6.411,6.411,0,0,1-2.472.472V96.909h0a3.306,3.306,0,0,0,1.284-.266A3.065,3.065,0,0,0,104.132,96a2.711,2.711,0,0,0,.922-2.08V67.935Z" transform="translate(101.863 -67.935)" fill="#fff"/>
        <rect id="Rectangle_8" data-name="Rectangle 8" width="3.2" height="32.094" transform="translate(216.829 0.059)" fill="#fff"/>
        <rect id="Rectangle_9" data-name="Rectangle 9" width="3.218" height="3.218" transform="translate(175.45 35.413)" fill="#fff"/>
        <rect id="Rectangle_10" data-name="Rectangle 10" width="3.2" height="3.218" transform="translate(180.514 35.413)" fill="#fff"/>
        <rect id="Rectangle_13" data-name="Rectangle 13" width="3.218" height="3.218" transform="translate(8.303 35.373)" fill="#fff"/>
        <rect id="Rectangle_14" data-name="Rectangle 14" width="3.218" height="3.218" transform="translate(14.722 35.373)" fill="#fff"/>
      </g>
      <rect id="Rectangle_15" data-name="Rectangle 15" width="3.218" height="3.218" transform="translate(168.797 0.373)" fill="#fff"/>
    </g>
  </g>
</svg>
