<svg width="624" height="210" viewBox="0 0 624 210" fill="none" xmlns="http://www.w3.org/2000/svg">
    <g clip-path="url(#clip0_37_1895)">
        <mask id="mask0_37_1895" style="mask-type:luminance" maskUnits="userSpaceOnUse" x="178" y="-247" width="525" height="525">
            <path d="M702.7 -246.8H178.5V277.4H702.7V-246.8Z" fill="white"/>
        </mask>
        <g mask="url(#mask0_37_1895)">
            <path d="M284.9 75C284.9 67.4 285 59.9 284.9 52.3C284.9 50.4 285.5 49.9 287.3 50C289.3 50.1 291.3 50.1 293.3 50C295 49.9 295.7 50.4 295.7 52.3C295.6 66.3 295.7 80.4 295.7 94.4C295.7 101.4 296.7 102.4 303.7 102.5C308 102.5 310.2 102.5 311.1 102.4C313.6 102 315 101.7 316 100.5C317.2 99 317 97 316.9 96.2C317 81 317.1 70.1 316.9 67.7C316.9 67.3 316.7 66 317.5 65.3C317.9 64.9 318.6 64.8 319.7 64.9C321.6 65.1 323.6 65 325.5 64.9C326.3 64.8 326.9 64.9 327.3 65.3C327.9 65.9 327.8 66.8 327.8 67.1C327.7 68.9 327.7 79.4 327.8 94C327.6 97.7 328.9 99.6 329.6 100.4C331.9 103.1 336.1 102.9 344.5 102.5C346.7 102.4 348.4 102.2 349.6 101C350.6 100 350.9 98.4 350.9 95.8C350.9 86.5 351 77.1 350.8 67.8C350.8 65.4 351.5 64.7 353.8 64.9C355.7 65.1 357.7 65 359.6 64.9C361.3 64.8 361.7 65.5 361.7 67.1C361.6 76.1 361.7 85 361.7 94C361.7 101.8 362.3 102.5 370.2 102.7C373.4 102.8 376.5 102.7 379.7 102.4C383.2 102.1 384.7 100.7 384.7 97.1C384.8 87.3 384.8 77.5 384.7 67.7C384.7 65.5 385.4 64.9 387.4 65.1C389.2 65.3 391.1 65.3 393 65.1C394.9 64.9 395.5 65.5 395.5 67.5C395.4 76.5 395.5 85.4 395.5 94.4C395.5 101.7 396.2 102.4 403.5 102.7C406.1 102.8 408.8 102.6 411.4 102.3C414 102 415.2 100.7 415.6 98.1C415.8 97 415.8 95.9 415.8 94.9C415.8 80.9 415.9 66.8 415.8 52.8C415.8 50.6 416.5 50 418.5 50.2C420.6 50.4 422.7 50.3 424.8 50.2C426.1 50.2 426.6 50.6 426.6 51.9C426.6 67.3 426.6 82.6 426.5 98C426.5 99.6 426.8 103.7 424.2 107.1C423.4 108.2 422.5 108.9 421.4 109.6C417.2 112.3 408.1 116 397.6 113.2C396 112.8 393.6 112 390.8 110.5C389 111.6 387.5 112.4 386.4 112.9C385.4 113.3 373.5 118.3 361.3 113C359.8 112.3 358.6 111.6 358 111.3C355.5 112.2 352.3 113.2 348.3 113.8C346.9 114 342.8 114.5 337.4 114C331.8 113.5 327 112.1 323.2 110.6C322.7 111 321.9 111.6 320.9 112.1C318.4 113.4 316.1 113.7 314.7 113.8C309.1 114.2 303.4 114.4 297.8 113.6C294.3 113.1 292 112.1 289.7 110C286 106.5 285.5 101.8 285.4 100C284.9 91.4 284.9 83.2 284.9 75Z" fill="white"/>
        </g>
        <mask id="mask1_37_1895" style="mask-type:luminance" maskUnits="userSpaceOnUse" x="178" y="-247" width="525" height="525">
            <path d="M702.7 -246.8H178.5V277.4H702.7V-246.8Z" fill="white"/>
        </mask>
        <g mask="url(#mask1_37_1895)">
            <path d="M485.5 113.4C473.1 113.4 460.8 113.4 448.4 113.4C446.6 113.4 445.9 113 446.1 111.1C446.3 109 446.3 106.8 446.1 104.6C446 102.8 446.7 102.4 448.4 102.5C455.8 102.6 463.2 102.5 470.6 102.5C478.1 102.5 479.2 101.4 479.2 94C479.2 85.1 479.3 76.3 479.2 67.4C479.2 65.3 479.8 64.7 481.9 64.8C484.1 65 486.4 64.9 488.6 64.8C490.2 64.7 490.7 65.3 490.7 66.9C490.5 77.9 491 89 490.3 100C490.2 102.1 490.7 102.6 492.8 102.5C501.1 102.4 509.3 102.5 517.6 102.5C518.4 102.5 519.1 102.5 519.9 102.4C524.8 102 526 100.8 526.1 95.9C526.2 86.3 526.3 76.8 526.2 67.2C526.2 65.3 526.7 64.6 528.6 64.7C530.7 64.8 532.8 64.8 534.9 64.7C536.3 64.7 536.8 65.1 536.8 66.5C536.7 77.3 536.9 88.1 536.7 98.9C536.5 107.4 530.7 113 522.2 113.1C509.9 113.4 497.7 113.3 485.5 113.4Z" fill="white"/>
        </g>
        <mask id="mask2_37_1895" style="mask-type:luminance" maskUnits="userSpaceOnUse" x="178" y="-247" width="525" height="525">
            <path d="M702.7 -246.8H178.5V277.4H702.7V-246.8Z" fill="white"/>
        </mask>
        <g mask="url(#mask2_37_1895)">
            <path d="M552.2 89.1C552.2 81.8 552.3 74.4 552.2 67.1C552.2 65.3 552.8 64.8 554.5 64.9C556.5 65 558.5 65.1 560.5 64.9C562.5 64.7 563.1 65.3 563.1 67.4C563 78.3 563.1 89.2 563 100C563 102.1 563.5 102.6 565.6 102.6C569.7 102.4 573.8 102.6 577.9 102.5C578.7 102.5 579.4 102.5 580.2 102.4C584.4 101.9 585.8 100.5 585.8 96.3C585.8 86.7 585.9 77.2 585.7 67.6C585.7 65.3 586.4 64.7 588.6 64.9C590.7 65.1 592.8 65 594.9 64.9C596.1 64.9 596.5 65.3 596.5 66.5C596.4 77.5 596.6 88.4 596.3 99.4C596.1 107.8 591 112.6 582.6 113.5C576.7 114.1 570.7 113.7 564.8 113.8C563.4 113.8 562.9 114.3 562.7 115.6C561.2 125.9 554.8 128.3 547.3 128.7C544.4 128.8 541.4 128.7 538.5 128.8C537.2 128.8 536.9 128.3 537 127.2C537.1 124.7 537.1 122.3 537 119.8C536.9 118.2 537.6 117.8 539 117.8C541.2 117.8 543.3 117.8 545.5 117.8C550.8 117.7 552.2 116.5 552.3 111.1C552.4 106.2 552.3 101.2 552.3 96.3C552.2 93.7 552.2 91.4 552.2 89.1Z" fill="white"/>
        </g>
        <mask id="mask3_37_1895" style="mask-type:luminance" maskUnits="userSpaceOnUse" x="178" y="-247" width="525" height="525">
            <path d="M702.7 -246.8H178.5V277.4H702.7V-246.8Z" fill="white"/>
        </mask>
        <g mask="url(#mask3_37_1895)">
            <path d="M573.9 123.8C573.9 121.1 575.8 119.1 578.5 119C581.2 118.9 583.3 121 583.3 123.8C583.3 126.4 581.3 128.4 578.6 128.5C576 128.6 574 126.5 573.9 123.8Z" fill="white"/>
        </g>
        <mask id="mask4_37_1895" style="mask-type:luminance" maskUnits="userSpaceOnUse" x="178" y="-247" width="525" height="525">
            <path d="M702.7 -246.8H178.5V277.4H702.7V-246.8Z" fill="white"/>
        </mask>
        <g mask="url(#mask4_37_1895)">
            <path d="M381.8 128.1C379.2 128.1 377.1 125.9 377.2 123.3C377.3 120.6 379.3 118.7 382 118.7C384.7 118.7 386.8 120.9 386.7 123.6C386.7 126.3 384.6 128.2 381.8 128.1Z" fill="white"/>
        </g>
        <mask id="mask5_37_1895" style="mask-type:luminance" maskUnits="userSpaceOnUse" x="178" y="-247" width="525" height="525">
            <path d="M702.7 -246.8H178.5V277.4H702.7V-246.8Z" fill="white"/>
        </mask>
        <g mask="url(#mask5_37_1895)">
            <path d="M318.7 123.8C318.7 126.5 316.5 128.6 313.8 128.6C311.3 128.6 309.3 126.3 309.3 123.7C309.3 121.2 311.5 119.1 314.1 119.1C316.9 119 318.7 120.9 318.7 123.8Z" fill="white"/>
        </g>
        <mask id="mask6_37_1895" style="mask-type:luminance" maskUnits="userSpaceOnUse" x="178" y="-247" width="525" height="525">
            <path d="M702.7 -246.8H178.5V277.4H702.7V-246.8Z" fill="white"/>
        </mask>
        <g mask="url(#mask6_37_1895)">
            <path d="M327.8 118.8C330.5 118.8 332.6 121 332.5 123.7C332.4 126.3 330.3 128.1 327.6 128.1C325 128.1 322.9 125.9 323 123.3C323 120.7 325 118.8 327.8 118.8Z" fill="white"/>
        </g>
        <mask id="mask7_37_1895" style="mask-type:luminance" maskUnits="userSpaceOnUse" x="178" y="-247" width="525" height="525">
            <path d="M702.7 -246.8H178.5V277.4H702.7V-246.8Z" fill="white"/>
        </mask>
        <g mask="url(#mask7_37_1895)">
            <path d="M516.4 118.8C519.2 118.8 521.1 120.9 521 123.8C520.9 126.5 518.9 128.2 516.1 128.2C513.6 128.1 511.6 126 511.6 123.6C511.5 120.8 513.7 118.8 516.4 118.8Z" fill="white"/>
        </g>
        <mask id="mask8_37_1895" style="mask-type:luminance" maskUnits="userSpaceOnUse" x="178" y="-247" width="525" height="525">
            <path d="M702.7 -246.8H178.5V277.4H702.7V-246.8Z" fill="white"/>
        </mask>
        <g mask="url(#mask8_37_1895)">
            <path d="M396 118.8C398.6 118.9 400.8 121.2 400.7 123.8C400.6 126.4 398.5 128.2 395.7 128.1C393.1 128 391.1 125.8 391.2 123.3C391.3 120.6 393.3 118.7 396 118.8Z" fill="white"/>
        </g>
        <mask id="mask9_37_1895" style="mask-type:luminance" maskUnits="userSpaceOnUse" x="178" y="-247" width="525" height="525">
            <path d="M702.7 -246.8H178.5V277.4H702.7V-246.8Z" fill="white"/>
        </mask>
        <g mask="url(#mask9_37_1895)">
            <path d="M507.4 123.9C507.4 126.6 505.2 128.6 502.4 128.5C499.9 128.4 498 126.2 498 123.5C498.1 121 500.1 119 502.6 119C505.3 119 507.4 121.2 507.4 123.9Z" fill="white"/>
        </g>
        <mask id="mask10_37_1895" style="mask-type:luminance" maskUnits="userSpaceOnUse" x="178" y="-247" width="525" height="525">
            <path d="M702.7 -246.8H178.5V277.4H702.7V-246.8Z" fill="white"/>
        </mask>
        <g mask="url(#mask10_37_1895)">
            <path d="M359.6 123.6C359.6 126.3 357.8 128.1 354.9 128.2C352.3 128.3 350.2 126.2 350.1 123.6C350.1 121 352 118.9 354.7 118.9C357.6 118.8 359.6 120.7 359.6 123.6Z" fill="white"/>
        </g>
        <mask id="mask11_37_1895" style="mask-type:luminance" maskUnits="userSpaceOnUse" x="178" y="-247" width="525" height="525">
            <path d="M702.7 -246.8H178.5V277.4H702.7V-246.8Z" fill="white"/>
        </mask>
        <g mask="url(#mask11_37_1895)">
            <path d="M321.3 138H317.2V161.1H321.3V138Z" fill="white"/>
        </g>
        <mask id="mask12_37_1895" style="mask-type:luminance" maskUnits="userSpaceOnUse" x="178" y="-247" width="525" height="525">
            <path d="M702.7 -246.8H178.5V277.4H702.7V-246.8Z" fill="white"/>
        </mask>
        <g mask="url(#mask12_37_1895)">
            <path d="M289 158.6V138H284.8V161.2H286.5H289H297.8V158.6H289Z" fill="white"/>
        </g>
        <mask id="mask13_37_1895" style="mask-type:luminance" maskUnits="userSpaceOnUse" x="178" y="-247" width="525" height="525">
            <path d="M702.7 -246.8H178.5V277.4H702.7V-246.8Z" fill="white"/>
        </mask>
        <g mask="url(#mask13_37_1895)">
            <path d="M358.1 152.5C356.8 149.8 354 149.1 353.6 149C354.1 148.8 355.1 148.2 356 147.1C356.7 146.1 357 145.2 357 145C357.7 142.2 355.7 139.8 355.5 139.6C354.6 138.6 353.3 138.1 352 138.1C348.8 138.1 345.6 138.2 342.4 138.2V161.3C345.5 161.3 348.6 161.3 351.7 161.3C352.6 161.3 353.4 161.2 354.3 160.9C354.9 160.7 355.6 160.4 356.2 159.9C356.8 159.5 357.8 158.8 358.4 157.5C359.3 155.2 358.3 152.9 358.1 152.5ZM352.4 142.7C353.3 144 353.1 146 352.2 147.1C352 147.3 351.7 147.5 351.4 147.6C350 148.2 348.7 148.2 347.8 148V141.2C348.3 141.1 350 140.7 351.5 141.8C352.1 142.2 352.4 142.6 352.4 142.7ZM352.3 158.6C351.7 159 351.1 159.1 350.6 159.1C349.7 159.1 348.8 159.1 347.9 159.1V150.7C348.5 150.7 349.1 150.7 349.7 150.7C350.4 150.7 351.7 150.8 352.6 151.7C354.6 153.3 354.3 157.3 352.3 158.6Z" fill="white"/>
        </g>
        <mask id="mask14_37_1895" style="mask-type:luminance" maskUnits="userSpaceOnUse" x="178" y="-247" width="525" height="525">
            <path d="M702.7 -246.8H178.5V277.4H702.7V-246.8Z" fill="white"/>
        </mask>
        <g mask="url(#mask14_37_1895)">
            <path d="M373.7 138H379.3C381.2 141.7 383.2 145.5 385.1 149.2C387.1 145.5 389.1 141.7 391.1 138H393.7C391.1 143.2 388.5 148.3 385.9 153.5C385.9 156 385.9 158.6 385.9 161.1H381.6C381.6 158.4 381.6 155.7 381.6 152.9C378.9 148 376.3 143 373.7 138Z" fill="white"/>
        </g>
        <mask id="mask15_37_1895" style="mask-type:luminance" maskUnits="userSpaceOnUse" x="178" y="-247" width="525" height="525">
            <path d="M702.7 -246.8H178.5V277.4H702.7V-246.8Z" fill="white"/>
        </mask>
        <g mask="url(#mask15_37_1895)">
            <path d="M422.3 138C420.9 138 419.4 138.1 418 138.1C414.9 145.8 411.7 153.5 408.6 161.2C409.7 161.2 410.8 161.2 411.9 161.2C412.9 158.7 413.9 156.3 414.9 153.8C417.6 153.9 420.3 153.9 423 154C424 156.4 424.9 158.8 425.9 161.2C427.5 161.2 429.1 161.2 430.7 161.2C427.8 153.5 425.1 145.7 422.3 138ZM415.4 151.4C416.7 148.3 417.9 145.2 419.2 142.2C420.2 145.3 421.2 148.3 422.2 151.4C420 151.4 417.7 151.4 415.4 151.4Z" fill="white"/>
        </g>
        <mask id="mask16_37_1895" style="mask-type:luminance" maskUnits="userSpaceOnUse" x="178" y="-247" width="525" height="525">
            <path d="M702.7 -246.8H178.5V277.4H702.7V-246.8Z" fill="white"/>
        </mask>
        <g mask="url(#mask16_37_1895)">
            <path d="M475.8 161.2H471.2C471.2 153.5 471.2 145.8 471.1 138.1C473.9 138.1 476.8 138.1 479.6 138.1C480.3 138.1 481.4 138.2 482.7 138.8C483.1 139 485.1 140 486 142.2C487.5 145.8 484.8 149.2 484.6 149.4C481.9 152.7 477.5 152.3 477.1 152.3C477 152.3 476.6 152.2 476.4 151.8C476.2 151.4 476.4 151 476.4 150.9C476.7 150.3 477.3 150.2 477.8 150C477.8 150 479.5 149.4 480.6 147.6C481.6 146 481.2 144.1 481.1 143.8C480.6 141.8 479.1 140.8 478.8 140.6C477.6 140.6 476.5 140.6 475.3 140.5C475.6 147.4 475.7 154.3 475.8 161.2Z" fill="white"/>
        </g>
        <mask id="mask17_37_1895" style="mask-type:luminance" maskUnits="userSpaceOnUse" x="178" y="-247" width="525" height="525">
            <path d="M702.7 -246.8H178.5V277.4H702.7V-246.8Z" fill="white"/>
        </mask>
        <g mask="url(#mask17_37_1895)">
            <path d="M525 141.7C523.5 140 521.7 139.3 520.9 138.9C518 137.8 515.5 138.1 514.2 138.2C513.3 138.3 512.1 138.5 510.6 139.2C509.8 139.5 508.1 140.4 506.7 142.2C506.7 142.3 506.6 142.3 506.6 142.4C505.5 143.9 505 145.7 505 147.5L504.9 151.7C504.9 152.3 505 152.8 505.1 153.4C505.3 154.2 505.7 155.2 506.3 156.2C508.3 159.3 511.4 160.3 512.4 160.6C513.2 160.9 516.7 161.9 520.6 160.3C521.5 159.9 523.8 159 525.5 156.5C525.8 156.1 526.1 155.6 526.3 155.2C526.8 154.1 527.1 152.9 527.1 151.7C527.2 150.2 527.2 148.7 527.2 147.2C527.2 146.4 527.1 145.6 526.8 144.8C526.4 143.8 525.9 142.7 525 141.7ZM516.1 157.3C512.4 157.3 509.4 154.2 509.4 150.5V149C509.4 145.3 512.5 142.3 516.2 142.3C519.9 142.3 522.9 145.4 522.9 149.1V150.6C522.8 154.3 519.8 157.4 516.1 157.3Z" fill="white"/>
        </g>
        <mask id="mask18_37_1895" style="mask-type:luminance" maskUnits="userSpaceOnUse" x="178" y="-247" width="525" height="525">
            <path d="M702.7 -246.8H178.5V277.4H702.7V-246.8Z" fill="white"/>
        </mask>
        <g mask="url(#mask18_37_1895)">
            <path d="M559.8 138.2L559.7 141.4C558.7 141.3 557.2 141.1 555.4 141C552.9 140.8 552.1 140.7 551.3 141.3C551.2 141.3 550.2 142.2 550.2 143.4C550.2 144.4 550.8 145.1 551.2 145.5C552.1 146.5 553 146.7 555.1 147.5C557.4 148.4 558.6 148.9 559.3 149.6C561.1 151.3 561.1 153.8 561.1 154C561.1 156.3 559.9 157.9 559.3 158.5C557.8 160.1 556 160.4 554.5 160.7C550.8 161.4 547.7 160.3 546.1 159.5C546.4 158.4 546.6 157.4 546.9 156.3C548.7 157 550.2 157.5 551.4 157.7C555.3 158.6 556.2 157.9 556.5 157.7C557.1 157.2 557.2 156.5 557.3 156.1C557.6 155.1 557.5 153.8 556.8 152.9C556.4 152.3 555.9 152.3 554.4 151.7C552.3 151 550.7 150.4 549.1 149.3C548.2 148.7 547.6 148.3 547.1 147.5C546.1 146.1 546 144.4 546.2 143.3C546.5 141.8 547.4 140.4 548.8 139.3C550.1 138.3 551.8 137.9 553.4 137.9H559.8V138.2Z" fill="white"/>
        </g>
        <mask id="mask19_37_1895" style="mask-type:luminance" maskUnits="userSpaceOnUse" x="178" y="-247" width="525" height="525">
            <path d="M702.7 -246.8H178.5V277.4H702.7V-246.8Z" fill="white"/>
        </mask>
        <g mask="url(#mask19_37_1895)">
            <path d="M577.9 138.1C583.9 138.1 589.9 138.1 595.9 138V140.9L589 140.8C589 147.5 589 154.3 588.9 161H584.9L584.6 141C582.3 141 580.1 141 577.8 140.9V138.1H577.9Z" fill="white"/>
        </g>
        <path fill-rule="evenodd" clip-rule="evenodd" d="M35 84.8C38.7 76.8 49.2 71.3 55.9 71.9C68.2 71.9 79.9 78.7 96.5 84.2C131 96.5 197.5 89.8 151.3 43C137.8 29.5 147.6 14.7 169.1 22.7C176.5 25.8 184.5 29.5 191.9 31.3L170.3 25.8C156.2 20.3 150 27 164.2 41.8C200.5 80.5 149.4 110.6 93.4 85.4C81.8 80.5 70.7 75 62.7 74.4C47.3 73.2 39.3 81.2 37.5 89.2L35 84.8Z" fill="white"/>
        <path fill-rule="evenodd" clip-rule="evenodd" d="M48.4999 102C41.6999 94.6 33.0999 92.8 23.8999 97.1C28.1999 90.4 29.4999 87.9 35.5999 84.2C39.2999 76.8 48.4999 73.1 54.6999 73.1C67.5999 72.5 82.9999 81.7 99.5999 87.2C136.6 99 201.2 90.4 155 43.7C141.5 29.6 149.4 17.3 171.6 25.3C205.5 37.6 237.5 37 267 31.5C240 43.7 211 43 174.1 28.3C159.9 22.8 153.2 28.9 167.9 43.6C206.7 81.7 154.4 111.2 95.2999 87.2C83.5999 82.3 70.6999 77.4 62.6999 76.8C46.6999 75.6 41.1999 84.2 38.6999 92.1C52.1999 93.9 66.9999 101.3 73.7999 113C86.6999 135.8 97.1999 143.1 109.5 146.2C79.8999 144.4 60.8999 115.6 48.4999 102Z" fill="white"/>
        <path fill-rule="evenodd" clip-rule="evenodd" d="M240.6 138.3C244.9 84.2 203.7 60.9 187.7 56.6C233.2 74.4 240 111.3 240.6 138.3Z" fill="white"/>
        <path fill-rule="evenodd" clip-rule="evenodd" d="M192 181.3C171.7 177.6 158.1 159.2 144.6 129.7C159.9 158 168 171.5 192 181.3Z" fill="white"/>
        <path fill-rule="evenodd" clip-rule="evenodd" d="M225.8 162.9C233.8 138.3 217.8 100.8 181.5 74.4C206.1 92.2 230.7 129.1 225.8 162.9Z" fill="white"/>
        <path fill-rule="evenodd" clip-rule="evenodd" d="M180.9 40.6C216.6 43.7 243.1 72.6 243.7 110.6C243.7 148.1 212.3 181.3 173.5 181.3C143.3 181.9 117.5 163.5 107 137.1C116.9 165.3 143.9 185.6 175.3 185C215.3 185 247.3 151.8 246.7 111.9C246.7 73.8 216.5 42.4 178.4 40.6H180.9Z" fill="white"/>
        <path fill-rule="evenodd" clip-rule="evenodd" d="M172.3 183.8C150.8 178.9 147.1 178.3 129.2 159.2C147.6 177.6 153.2 178.2 172.3 183.8Z" fill="white"/>
        <path fill-rule="evenodd" clip-rule="evenodd" d="M209.8 174.5C200.6 154.2 185.8 128.4 167.9 103.8C186.4 129.7 193.2 148.7 209.8 174.5Z" fill="white"/>
        <path fill-rule="evenodd" clip-rule="evenodd" d="M108.2 145.7C169.8 156.8 226.4 126.7 243.6 60.3C224.6 124.2 168 154.9 108.2 145.7Z" fill="white"/>
        <path fill-rule="evenodd" clip-rule="evenodd" d="M129.8 171.5C194.4 175.2 240.6 147.5 252.9 88.5C238.7 145 192.6 172.7 129.8 171.5Z" fill="white"/>
    </g>
    <defs>
        <clipPath id="clip0_37_1895">
            <rect width="623.5" height="209.1" fill="white"/>
        </clipPath>
    </defs>
</svg>
